<svg width="384" height="171" viewBox="0 0 384 171" fill="none" xmlns="http://www.w3.org/2000/svg">
<g opacity="0.6">
<path opacity="0.6" d="M259.201 77.9197L-175 170.987L214.642 55.999L259.201 77.9197Z" fill="#EBEBEB"/>
<path opacity="0.6" d="M198.608 105.823C175.515 111.686 152.278 116.855 129.017 121.761C117.387 124.154 105.732 126.547 94.078 128.94L59.0672 135.76L23.9847 142.15C12.2586 144.16 0.556389 146.29 -11.1936 148.157C-34.6458 152.033 -58.1698 155.671 -81.8135 158.59C-58.7202 152.727 -35.5073 147.558 -12.2227 142.653C-0.592285 140.14 11.062 137.866 22.7163 135.473L57.7271 128.581L92.7379 122.287C104.44 120.277 116.142 118.147 127.892 116.281C151.44 112.404 174.964 108.766 198.608 105.823Z" fill="#EBEBEB"/>
<path opacity="0.6" d="M34.1553 98.3806C19.6213 103.821 4.99161 108.974 -9.73381 113.84C-24.4273 118.77 -39.2166 123.412 -54.0058 128.031C-68.7951 132.649 -83.6561 137.029 -98.5889 141.217C-113.522 145.405 -128.479 149.449 -143.579 153.182C-129.029 147.726 -114.399 142.565 -99.6898 137.699C-84.9962 132.769 -70.207 128.127 -55.4177 123.508C-40.6285 118.889 -25.7435 114.534 -10.8346 110.322C4.07426 106.11 19.0789 102.066 34.1553 98.3806Z" fill="#EBEBEB"/>
</g>
<path d="M270.161 81.3417C269.323 80.3845 257.693 72.248 256.832 71.6497L258.818 71.3147C258.818 71.3147 269.443 80.3366 270.161 81.3417Z" fill="#FFC727"/>
<path opacity="0.5" d="M270.161 81.3417C269.323 80.3845 257.693 72.248 256.832 71.6497L258.818 71.3147C258.818 71.3147 269.443 80.3366 270.161 81.3417Z" fill="white"/>
<path d="M270.209 81.4134C270.209 81.6288 269.324 81.7963 268.438 81.9159C267.607 82.0636 266.756 82.0636 265.925 81.9159C265.686 81.7484 257.286 77.5605 252.141 74.976H251.95L251.232 74.617L249.006 73.5401L248.193 73.1333L256.832 71.6496L264.729 77.2255L265.064 77.4887L266.021 78.1588C267.459 79.1421 268.841 80.2047 270.161 81.3416L270.209 81.4134Z" fill="#FFC727"/>
<g opacity="0.1">
<path opacity="0.1" d="M270.209 81.4135C270.209 81.6289 269.323 81.7964 268.438 81.916C267.607 82.0638 266.756 82.0638 265.925 81.916C265.686 81.7485 257.071 77.441 251.95 74.8804C252.787 75.2872 263.915 80.5998 266.069 78.0632C267.507 79.0465 268.889 80.1091 270.209 81.246V81.4135Z" fill="black"/>
</g>
<path d="M384 90.89C384 92.0626 377.635 92.4216 376.821 92.1823C376.007 91.943 306.584 64.6379 306.584 64.6379L332.046 54.5391L332.788 55.0656L333.099 55.281C337.885 58.5356 351.837 68.2754 364.09 76.8187L364.832 77.3452L365.789 78.0153C374.26 83.9501 381.631 89.1192 384 90.89Z" fill="#FFC727"/>
<path d="M384 90.8901C377.802 86.2714 337.335 58.2245 332.022 54.5391L335.253 53.2708C335.253 53.2708 382.397 89.167 383.832 90.555C383.929 90.6409 383.989 90.761 384 90.8901Z" fill="#FFC727"/>
<path opacity="0.5" d="M384 90.8901C377.802 86.2714 337.335 58.2245 332.022 54.5391L335.253 53.2708C335.253 53.2708 382.397 89.167 383.832 90.555C383.929 90.6409 383.989 90.761 384 90.8901Z" fill="white"/>
<g opacity="0.5">
<path opacity="0.1" d="M384 90.89C384 92.0626 377.635 92.4216 376.821 92.1823C376.007 91.943 306.584 64.6379 306.584 64.6379L332.046 54.5391C332.046 54.5391 325.753 61.7184 340.709 72.8462C350.904 80.4083 361.768 81.9878 365.789 78.0153C374.26 83.9501 381.631 89.1192 384 90.89Z" fill="black"/>
</g>
<path d="M326.231 73.5403C324.245 74.4975 322.115 75.2394 321.947 73.277C321.947 72.4634 322.522 71.578 325.68 70.0703C326.422 69.7114 328.241 68.9216 328.792 70.5489C329.342 72.1762 326.973 73.2292 326.231 73.5403Z" fill="#FFC727"/>
<path opacity="0.1" d="M326.231 73.5403C324.245 74.4975 322.115 75.2394 321.947 73.277C321.947 72.4634 322.522 71.578 325.68 70.0703C326.422 69.7114 328.241 68.9216 328.792 70.5489C329.342 72.1762 326.973 73.2292 326.231 73.5403Z" fill="black"/>
<path d="M342.288 80.1691C340.326 81.1263 338.196 81.8682 338.029 79.9058C338.029 79.0922 338.603 78.2067 341.762 76.6991C342.504 76.3401 344.323 75.5504 344.849 77.1777C345.376 78.805 343.03 79.8101 342.288 80.1691Z" fill="#FFC727"/>
<path opacity="0.1" d="M342.288 80.1691C340.326 81.1263 338.196 81.8682 338.029 79.9058C338.029 79.0922 338.603 78.2067 341.762 76.6991C342.504 76.3401 344.323 75.5504 344.849 77.1777C345.376 78.805 343.03 79.8101 342.288 80.1691Z" fill="black"/>
<path d="M358.37 86.7501C356.408 87.7073 354.254 88.4492 354.111 86.4629C354.111 85.6732 354.685 84.7878 357.844 83.2801C358.586 82.9212 360.404 82.1075 360.931 83.7587C361.457 85.41 359.112 86.3911 358.37 86.7501Z" fill="#FFC727"/>
<path opacity="0.1" d="M358.37 86.7501C356.408 87.7073 354.254 88.4492 354.111 86.4629C354.111 85.6732 354.685 84.7878 357.844 83.2801C358.586 82.9212 360.404 82.1075 360.931 83.7587C361.457 85.41 359.112 86.3911 358.37 86.7501Z" fill="black"/>
<path d="M353.129 69.472C351.191 72.8941 346.788 74.2582 344.012 75.2633C336.617 78.2067 331.256 79.8819 328.6 73.1573C328.289 72.3931 328.096 71.5863 328.026 70.7643C327.595 65.6909 332.812 63.1543 335.492 61.7663C338.699 60.0672 340.972 58.9664 342.671 58.2484C344.313 57.4378 346.107 56.9812 347.936 56.9083C349.42 56.9083 352.722 57.2194 353.919 63.4175C354.38 65.4656 354.1 67.6107 353.129 69.472Z" fill="#FFC727"/>
<path d="M353.201 64.638C353.201 68.419 350.808 71.4822 347.936 71.4822C345.064 71.4822 342.671 68.419 342.671 64.638C342.671 60.8569 345.064 57.8177 347.936 57.8177C350.808 57.8177 353.201 60.8808 353.201 64.638Z" fill="#263238"/>
<path d="M352.602 64.638C352.371 65.4985 351.903 66.2772 351.253 66.8864C350.603 67.4956 349.795 67.9112 348.921 68.0863C348.048 68.2613 347.142 68.189 346.307 67.8774C345.472 67.5657 344.741 67.0272 344.196 66.3224C343.65 65.6176 343.313 64.7746 343.22 63.8882C343.128 63.0018 343.285 62.1073 343.674 61.3055C344.063 60.5036 344.668 59.8262 345.421 59.3495C346.174 58.8728 347.045 58.6158 347.936 58.6074C349.347 58.8042 350.626 59.5453 351.498 60.6722C352.37 61.7992 352.766 63.2225 352.602 64.638Z" fill="#455A64"/>
<path d="M242.832 62.8432L241.612 63.2739L238.86 64.279L229.287 60.1868C220.074 56.2143 209.162 51.5717 207.08 50.8777H207.343H207.582H207.893H208.085L208.803 51.1171L209.544 51.3564L211.65 52.0504L212.344 52.2897L213.014 52.505H213.397L214.522 52.8879L215.288 53.1512L225.123 56.7887L226.057 57.0998L229.694 58.3202L235.988 60.4501L236.873 60.7612L239.602 61.6706L240.296 61.8859H240.607H240.774L242.832 62.8432Z" fill="#FFC727"/>
<path opacity="0.5" d="M242.832 62.8432L241.612 63.2739L238.86 64.279L229.287 60.1868C220.074 56.2143 209.162 51.5717 207.08 50.8777H207.343H207.582H207.893H208.085L208.803 51.1171L209.544 51.3564L211.65 52.0504L212.344 52.2897L213.014 52.505H213.397L214.522 52.8879L215.288 53.1512L225.123 56.7887L226.057 57.0998L229.694 58.3202L235.988 60.4501L236.873 60.7612L239.602 61.6706L240.296 61.8859H240.607H240.774L242.832 62.8432Z" fill="white"/>
<path d="M238.859 64.279L231.537 66.9593C231.537 66.9593 215.096 59.3254 205.213 54.5631H205.069L202.245 53.1752C200.814 52.5696 199.451 51.8156 198.177 50.9257C201.079 50.294 204.082 50.294 206.984 50.9257H207.151C209.161 51.5957 219.428 55.975 228.426 59.8279H228.617L229.359 60.139L238.859 64.279Z" fill="#FFC727"/>
<g opacity="0.1">
<path opacity="0.1" d="M238.86 64.2791L231.537 66.9593C231.537 66.9593 215.096 59.3254 205.213 54.5632C206.84 55.2332 223.472 62.58 227.588 61.551C227.968 61.4813 228.325 61.3209 228.629 61.0834C228.933 60.8459 229.176 60.5383 229.335 60.1869L238.86 64.2791Z" fill="black"/>
</g>
<path d="M257.861 53.7974L240.008 62.3885C240.008 62.3885 240.176 47.0728 240.319 36.0646C240.319 35.6817 240.319 35.3228 240.319 34.9399V34.0544C240.319 30.2734 240.319 27.2342 240.319 25.8701C240.319 21.4429 240.846 20.5335 242.019 21.2514C244.905 23.3755 247.575 25.7804 249.987 28.4307C251.28 30.1059 254.128 40.1568 255.97 47.0728C255.981 47.1282 255.981 47.185 255.97 47.2403C256.09 47.6471 256.186 48.03 256.281 48.4129C257.238 51.5957 257.861 53.7974 257.861 53.7974Z" fill="#FFC727"/>
<g opacity="0.1">
<path opacity="0.1" d="M257.861 53.7973L240.008 62.3885C240.008 62.3885 240.176 47.0728 240.319 36.0646C242.952 41.9276 248.145 49.9445 256.473 48.5086C257.239 51.5957 257.861 53.7973 257.861 53.7973Z" fill="black"/>
</g>
<path d="M227.444 71.7454C225.602 67.1507 233.427 62.9628 242.282 58.9903C251.136 55.0178 338.507 16.4892 351.191 13.0431C363.874 9.59708 378.615 14.3114 381.104 21.5625C384.837 32.4031 369.139 41.4968 312.495 64.973C305.076 68.0361 271.812 76.0051 253.242 76.053C233.284 76.1248 228.354 74.0188 227.444 71.7454Z" fill="#FFC727"/>
<path opacity="0.5" d="M227.444 71.7454C225.602 67.1507 233.427 62.9628 242.282 58.9903C251.136 55.0178 338.507 16.4892 351.191 13.0431C363.874 9.59708 378.615 14.3114 381.104 21.5625C384.837 32.4031 369.139 41.4968 312.495 64.973C305.076 68.0361 271.812 76.0051 253.242 76.053C233.284 76.1248 228.354 74.0188 227.444 71.7454Z" fill="white"/>
<path opacity="0.1" d="M312.47 64.973C305.052 68.0361 271.788 76.0051 253.218 76.0529C233.283 76.0529 228.354 74.0188 227.444 71.7454C226.535 69.472 228.162 66.9592 231.249 64.8533C231.226 65.3124 231.308 65.7708 231.489 66.1934C232.326 68.2515 236.777 70.1899 254.869 70.1181C271.812 70.1181 296.15 56.3579 302.874 53.558C354.23 32.2835 374.284 30.5126 370.886 20.6531C369.402 16.3695 363.18 13.067 355.833 12.1577C367.224 10.7936 378.878 15.1969 381.08 21.5625C384.813 32.4031 369.067 41.4968 312.47 64.973Z" fill="black"/>
<path d="M255.156 56.5733L257.143 55.7118V58.6553L255.156 59.5407V56.5733Z" fill="#455A64"/>
<path d="M258.818 54.994L260.948 54.0846V57.0281L258.818 57.9614V54.994Z" fill="#455A64"/>
<path d="M262.599 53.3426L264.753 52.4332V55.3767L262.599 56.31V53.3426Z" fill="#455A64"/>
<path d="M266.404 51.7153L268.558 50.782V53.7255L266.404 54.6588V51.7153Z" fill="#455A64"/>
<path d="M270.209 50.0641L272.339 49.1308V52.0982L270.209 53.0076V50.0641Z" fill="#455A64"/>
<path d="M274.014 48.4129L276.144 47.5035V50.447L274.014 51.3803V48.4129Z" fill="#455A64"/>
<path d="M277.795 46.7856L279.949 45.8523V48.7958L277.795 49.7291V46.7856Z" fill="#455A64"/>
<path d="M281.6 45.1344L283.73 44.201V47.1685L281.6 48.0778V45.1344Z" fill="#455A64"/>
<path d="M285.405 43.4831L287.535 42.5498V45.5172L285.405 46.4505V43.4831Z" fill="#455A64"/>
<path d="M289.186 41.8558L291.34 40.9225V43.866L289.186 44.7993V41.8558Z" fill="#455A64"/>
<path d="M292.991 40.2046L295.145 39.2713V42.2148L292.991 43.1481V40.2046Z" fill="#455A64"/>
<path d="M296.796 38.5534L298.926 37.6201V40.5875L296.796 41.5208V38.5534Z" fill="#455A64"/>
<path d="M300.601 36.9022L302.731 35.9928V38.9363L300.601 39.8696V36.9022Z" fill="#455A64"/>
<path d="M304.382 35.2748L306.536 34.3415V37.285L304.382 38.2183V35.2748Z" fill="#455A64"/>
<path d="M308.187 33.6237L310.341 32.6904V35.6578L308.187 36.5672V33.6237Z" fill="#455A64"/>
<path d="M311.992 31.9725L314.122 31.0392V34.0066L311.992 34.9399V31.9725Z" fill="#455A64"/>
<path d="M315.773 30.3452L317.927 29.4119V32.3554L315.773 33.2887V30.3452Z" fill="#455A64"/>
<path d="M319.578 28.6939L321.732 27.7606V30.7041L319.578 31.6374V28.6939Z" fill="#455A64"/>
<path d="M323.383 27.0426L325.537 26.1093V29.0767L323.383 30.01V27.0426Z" fill="#455A64"/>
<path d="M327.188 25.3914L329.318 24.482V27.4255L327.188 28.3588V25.3914Z" fill="#455A64"/>
<path d="M330.993 23.7642L333.123 22.8309V25.7744L330.993 26.7077V23.7642Z" fill="#455A64"/>
<path d="M336.928 21.1796V24.147L334.774 25.0564V22.1129L336.928 21.1796Z" fill="#455A64"/>
<path d="M340.733 19.5522V22.4957L338.579 23.429V20.4616L340.733 19.5522Z" fill="#455A64"/>
<path d="M344.514 17.9011V20.8446L342.384 21.7779V18.8344L344.514 17.9011Z" fill="#455A64"/>
<path d="M348.319 16.2498V19.2172L346.166 20.1266V17.1831L348.319 16.2498Z" fill="#455A64"/>
<path d="M358.37 15.0534C359.547 14.1572 360.901 13.521 362.343 13.1868V15.1491L358.37 15.0534Z" fill="#455A64"/>
<path d="M366.889 12.732V15.4362C365.884 15.4362 364.903 15.2926 363.898 15.2447V12.8516C364.889 12.7158 365.891 12.6757 366.889 12.732Z" fill="#455A64"/>
<path d="M376.438 16.5609C375.6 16.5609 374.835 16.3934 374.045 16.2977C373.255 16.202 372.513 16.0584 371.771 15.9866C370.671 15.8191 369.594 15.6994 368.517 15.6037V12.8995C369.826 13.0698 371.106 13.4159 372.322 13.9286C373.083 14.2313 373.812 14.6081 374.5 15.0533C374.849 15.2626 375.185 15.4944 375.505 15.7473C375.84 16.1063 376.151 16.2738 376.438 16.5609Z" fill="#455A64"/>
<path d="M308.116 40.6114L283.012 52.7204C283.012 52.7204 243 31.1827 214.283 15.6037C198.943 7.22793 187.241 0.718745 187.432 0.479436C187.911 -0.166696 195.617 -0.0949025 198.68 0.311921C198.972 0.339849 199.26 0.395948 199.541 0.479436C200.834 0.838399 246.111 17.6139 277.819 29.3639L308.116 40.6114Z" fill="#FFC727"/>
<g opacity="0.1">
<path opacity="0.1" d="M308.115 40.6115L283.012 52.7205C283.012 52.7205 243 31.1827 214.283 15.6038C216.532 16.7285 268.007 42.6695 274.732 38.7688C277.269 37.309 277.939 33.504 277.747 29.3161L308.115 40.6115Z" fill="black"/>
</g>
<path d="M311.872 38.9362L304.382 42.5497C285.237 34.5329 205.691 3.06389 199.087 0.431499C199.015 0.421353 198.943 0.421353 198.871 0.431499H198.704C198.996 0.459427 199.284 0.515526 199.565 0.599014C201.48 0.981907 311.872 38.9362 311.872 38.9362Z" fill="#FFC727"/>
<path opacity="0.5" d="M311.872 38.9362L304.382 42.5497C285.237 34.5329 205.691 3.06389 199.087 0.431499C199.015 0.421353 198.943 0.421353 198.871 0.431499H198.704C198.996 0.459427 199.284 0.515526 199.565 0.599014C201.48 0.981907 311.872 38.9362 311.872 38.9362Z" fill="white"/>
<path d="M257.861 39.5345C255.468 40.7311 252.74 41.6644 252.548 39.1755C252.548 38.1705 253.242 37.0936 257.215 35.1791C258.124 34.7244 260.397 33.7433 261.067 35.8013C261.738 37.8594 258.866 39.0798 257.861 39.5345Z" fill="#FFC727"/>
<path opacity="0.1" d="M257.861 39.5345C255.468 40.7311 252.74 41.6644 252.548 39.1755C252.548 38.1705 253.242 37.0936 257.215 35.1791C258.124 34.7244 260.397 33.7433 261.067 35.8013C261.738 37.8594 258.866 39.0798 257.861 39.5345Z" fill="black"/>
<path d="M236.634 28.7657C234.241 29.9623 231.489 30.8956 231.297 28.4307C231.297 27.4017 232.015 26.3248 235.964 24.4103C236.897 23.9796 239.171 22.9745 239.841 25.0325C240.511 27.0906 237.567 28.311 236.634 28.7657Z" fill="#FFC727"/>
<path opacity="0.1" d="M236.634 28.7657C234.241 29.9623 231.489 30.8956 231.297 28.4307C231.297 27.4017 232.015 26.3248 235.964 24.4103C236.897 23.9796 239.171 22.9745 239.841 25.0325C240.511 27.0906 237.567 28.311 236.634 28.7657Z" fill="black"/>
<path d="M215.264 17.8772C212.871 18.978 210.478 19.8634 210.286 17.566C210.286 16.6088 210.956 15.6037 214.642 13.8328C215.503 13.4021 217.633 12.4927 218.255 14.4072C218.877 16.3216 216.125 17.4464 215.264 17.8772Z" fill="#FFC727"/>
<path opacity="0.1" d="M215.264 17.8772C212.871 18.978 210.478 19.8634 210.286 17.566C210.286 16.6088 210.956 15.6037 214.642 13.8328C215.503 13.4021 217.633 12.4927 218.255 14.4072C218.877 16.3216 216.125 17.4464 215.264 17.8772Z" fill="black"/>
<path d="M289.736 37.0936C287.798 40.5396 283.395 41.8797 280.619 42.8848C273.224 45.8523 267.864 47.5035 265.207 40.7789C264.896 40.0147 264.703 39.2079 264.633 38.3859C264.202 33.3125 269.419 30.7998 272.099 29.3879C275.306 27.6888 277.58 26.588 279.279 25.894C280.92 25.0797 282.713 24.6152 284.543 24.5299C286.051 24.5299 289.33 24.8649 290.526 31.0391C290.987 33.0872 290.707 35.2323 289.736 37.0936Z" fill="#FFC727"/>
<path d="M284.544 39.1038C287.451 39.1038 289.808 36.0502 289.808 32.2835C289.808 28.5167 287.451 25.4632 284.544 25.4632C281.636 25.4632 279.279 28.5167 279.279 32.2835C279.279 36.0502 281.636 39.1038 284.544 39.1038Z" fill="#263238"/>
<path d="M289.21 32.2835C288.978 33.144 288.511 33.9227 287.86 34.5319C287.21 35.1411 286.403 35.5567 285.529 35.7318C284.655 35.9068 283.75 35.8345 282.915 35.5229C282.08 35.2112 281.349 34.6727 280.803 33.9679C280.258 33.2631 279.92 32.4201 279.828 31.5337C279.736 30.6473 279.893 29.7529 280.282 28.951C280.67 28.1491 281.275 27.4717 282.028 26.995C282.781 26.5183 283.652 26.2613 284.543 26.2529C285.952 26.4555 287.227 27.198 288.097 28.3235C288.968 29.449 289.367 30.8691 289.21 32.2835Z" fill="#455A64"/>
<path d="M209.616 51.6675L208.874 51.4282L209.616 51.6675Z" fill="#FFC727"/>
</svg>
