<svg width="414" height="403" viewBox="0 0 414 403" fill="none" xmlns="http://www.w3.org/2000/svg">
<g opacity="0.6">
<path opacity="0.6" d="M557.544 153.317L-113.181 402.841L481.383 128.738L557.544 153.317Z" fill="#EBEBEB"/>
<path opacity="0.6" d="M467.417 211.924C431.957 226.651 396.106 240.305 360.156 253.545C342.167 260.07 324.14 266.6 306.112 273.13L251.871 292.159L197.414 310.518C179.183 316.454 161.019 322.576 142.716 328.289C106.221 339.932 69.5553 351.211 32.5319 361.373C67.9922 346.645 103.805 332.997 139.793 319.751C157.755 313.036 175.81 306.697 193.837 300.167L248.062 281.023L302.426 262.833C320.619 256.903 338.784 250.781 357.086 245.068C393.734 233.403 430.4 222.124 467.417 211.924Z" fill="#EBEBEB"/>
<path opacity="0.6" d="M203.44 238.353C181.53 250.413 159.401 262.037 137.052 273.226C114.769 284.509 92.2667 295.356 69.7586 306.165C47.2505 316.974 24.5722 327.419 1.73481 337.574C-21.1026 347.73 -44.0116 357.662 -67.222 367.132C-45.2905 355.043 -23.1632 343.406 -0.839853 332.221C21.4431 320.938 43.9457 310.091 66.4538 299.281C88.9619 288.472 111.684 278.061 134.478 267.872C157.271 257.684 180.257 247.74 203.44 238.353Z" fill="#EBEBEB"/>
</g>
</svg>
