<svg width="35" height="35" viewBox="0 0 35 35" fill="none" xmlns="http://www.w3.org/2000/svg">
<path d="M24.8359 10.1641C24.6924 10.0205 24.5117 9.91963 24.3141 9.87288C24.1164 9.82613 23.9097 9.83532 23.717 9.89943L13.8733 13.1807C13.7121 13.2344 13.5656 13.325 13.4454 13.4451C13.3252 13.5653 13.2347 13.7118 13.1809 13.873L9.89968 23.7168C9.83541 23.9095 9.82609 24.1163 9.87275 24.314C9.91941 24.5117 10.0202 24.6925 10.1639 24.8362C10.3075 24.9798 10.4883 25.0806 10.686 25.1273C10.8838 25.174 11.0906 25.1646 11.2833 25.1004L21.127 21.8191C21.2882 21.7654 21.4347 21.6748 21.5549 21.5547C21.6751 21.4345 21.7656 21.288 21.8194 21.1268L25.1006 11.283C25.1647 11.0903 25.1739 10.8836 25.1272 10.686C25.0804 10.4884 24.9796 10.3077 24.8359 10.1641ZM12.6669 22.3343L15.0841 15.0849L19.9173 19.9182L12.6669 22.3343Z" fill="black"/>
<path d="M17.5 32.8125C14.4715 32.8125 11.511 31.9144 8.99284 30.2319C6.47471 28.5493 4.51207 26.1578 3.3531 23.3598C2.19413 20.5619 1.8909 17.483 2.48173 14.5127C3.07257 11.5424 4.53094 8.81393 6.67243 6.67243C8.81393 4.53094 11.5424 3.07257 14.5127 2.48173C17.483 1.8909 20.5619 2.19413 23.3598 3.3531C26.1578 4.51207 28.5493 6.47471 30.2319 8.99284C31.9144 11.511 32.8125 14.4715 32.8125 17.5C32.8079 21.5597 31.1931 25.4518 28.3225 28.3225C25.4518 31.1931 21.5597 32.8079 17.5 32.8125ZM17.5 4.37501C14.9041 4.37501 12.3665 5.14477 10.2081 6.58697C8.04975 8.02916 6.36749 10.079 5.37409 12.4773C4.38069 14.8756 4.12077 17.5146 4.6272 20.0606C5.13363 22.6066 6.38367 24.9452 8.21923 26.7808C10.0548 28.6163 12.3934 29.8664 14.9394 30.3728C17.4854 30.8792 20.1244 30.6193 22.5227 29.6259C24.921 28.6325 26.9708 26.9503 28.413 24.7919C29.8552 22.6335 30.625 20.0959 30.625 17.5C30.621 14.0203 29.2368 10.6842 26.7763 8.22371C24.3158 5.76317 20.9797 4.37906 17.5 4.37501Z" fill="black"/>
<path d="M19.9098 21.8871L22.4098 20.3871L23.9098 14.8871L25.9098 6.88708L30.4098 10.8871L30.6413 17.4663L30.4098 24.3871L24.9098 29.8871L17.0499 31.3695L17.0495 31.3696L16.9098 31.3871L6.90979 26.8871L4.40979 21.8871L4.40979 17.3871C4.40979 14.7204 4.90979 9.28709 6.90979 8.88708C9.40979 8.38708 8.90979 4.38708 12.9098 4.38708H19.9098L23.9098 4.38708L24.9098 5.88708L25.4098 6.88708V7.88708L24.4098 9.88708L21.9098 10.3871L17.9098 11.8871L13.9098 13.3871L13.4098 13.8871L12.9098 14.8871L9.90979 23.8871V24.3871L10.4098 24.8871H10.9098C11.9519 25.96 13.5058 27.5679 14.7899 28.9139L10.9098 24.3871L19.9098 21.8871Z" fill="black" fill-opacity="0.01"/>
<path d="M16.9098 31.3871L6.90979 26.8871L4.40979 21.8871L4.40979 17.3871C4.40979 14.7204 4.90979 9.28708 6.90979 8.88708C9.40979 8.38708 8.90979 4.38708 12.9098 4.38708C16.1098 4.38708 18.9098 4.38708 19.9098 4.38708L23.9098 4.38708L24.9098 5.88708L25.4098 6.88708V7.88708L24.4098 9.88708L21.9098 10.3871L17.9098 11.8871L13.9098 13.3871L13.4098 13.8871L12.9098 14.8871L9.90979 23.8871V24.3871L10.4098 24.8871H10.9098C13.0029 27.0421 17.1612 31.3557 17.0495 31.3696M16.9098 31.3871L10.9098 24.3871L19.9098 21.8871L22.4098 20.3871L23.9098 14.8871L25.9098 6.88708L30.4098 10.8871L30.6413 17.4663L30.4098 24.3871L24.9098 29.8871L17.0495 31.3696M16.9098 31.3871L17.0495 31.3696" stroke="black" stroke-opacity="0.01"/>
</svg>
