<svg width="35" height="35" viewBox="0 0 35 35" fill="none" xmlns="http://www.w3.org/2000/svg">
<path d="M15.3854 3.6924C15.9772 3.19369 16.7261 2.92017 17.5 2.92017C18.2739 2.92017 19.0228 3.19369 19.6146 3.6924L29.4583 11.9932C30.1977 12.6174 30.625 13.5347 30.625 14.5016V28.7976C30.625 29.4745 30.3561 30.1236 29.8775 30.6022C29.3989 31.0808 28.7498 31.3497 28.0729 31.3497H22.9688C22.2919 31.3497 21.6428 31.0808 21.1642 30.6022C20.6855 30.1236 20.4167 29.4745 20.4167 28.7976V20.7768C20.4167 20.6801 20.3783 20.5874 20.3099 20.519C20.2415 20.4506 20.1488 20.4122 20.0521 20.4122H14.9479C14.8512 20.4122 14.7585 20.4506 14.6901 20.519C14.6217 20.5874 14.5833 20.6801 14.5833 20.7768V28.7976C14.5833 29.4745 14.3145 30.1236 13.8358 30.6022C13.3572 31.0808 12.7081 31.3497 12.0312 31.3497H6.92708C6.59194 31.3497 6.26008 31.2837 5.95044 31.1554C5.64081 31.0272 5.35947 30.8392 5.12249 30.6022C4.88551 30.3652 4.69752 30.0839 4.56927 29.7743C4.44101 29.4646 4.375 29.1328 4.375 28.7976V14.5016C4.375 13.5347 4.80229 12.6174 5.54167 11.9932L15.3854 3.6924ZM18.2044 5.36511C18.0072 5.19913 17.7577 5.10811 17.5 5.10811C17.2423 5.10811 16.9928 5.19913 16.7956 5.36511L6.95188 13.6645C6.83006 13.767 6.7321 13.8949 6.66485 14.0393C6.59759 14.1836 6.56266 14.3409 6.5625 14.5001V28.7962C6.5625 28.9974 6.72583 29.1607 6.92708 29.1607H12.0312C12.1279 29.1607 12.2207 29.1223 12.289 29.054C12.3574 28.9856 12.3958 28.8928 12.3958 28.7962V20.7753C12.3958 19.3651 13.5392 18.2232 14.9479 18.2232H20.0521C21.4608 18.2232 22.6042 19.3651 22.6042 20.7753V28.7962C22.6042 28.9974 22.7675 29.1607 22.9688 29.1607H28.0729C28.1696 29.1607 28.2623 29.1223 28.3307 29.054C28.3991 28.9856 28.4375 28.8928 28.4375 28.7962V14.5016C28.4373 14.3423 28.4024 14.1851 28.3352 14.0407C28.2679 13.8964 28.1699 13.7685 28.0481 13.6659L18.2044 5.36511Z" fill="black"/>
</svg>
