<svg width="414" height="178" viewBox="0 0 414 178" fill="none" xmlns="http://www.w3.org/2000/svg">
<g opacity="0.6">
<path opacity="0.6" d="M314.672 68.6761L6.06527 177.493L280.045 56.8412L314.672 68.6761Z" fill="#EBEBEB"/>
<path opacity="0.6" d="M273.007 94.7633C256.68 101.218 240.182 107.179 223.642 112.951C215.366 115.792 207.073 118.636 198.78 121.481L173.832 129.755L148.791 137.721C140.409 140.292 132.057 142.948 123.644 145.416C106.867 150.453 90.0158 155.322 73.0093 159.678C89.337 153.223 105.817 147.264 122.375 141.49C130.639 138.561 138.944 135.804 147.237 132.96L172.178 124.634L197.176 116.744C205.54 114.175 213.892 111.519 222.305 109.051C239.152 104.005 256.003 99.1361 273.007 94.7633Z" fill="#EBEBEB"/>
<path opacity="0.6" d="M152.112 104.775C142.001 110.117 131.792 115.258 121.487 120.198C111.211 125.181 100.838 129.964 90.4623 134.729C80.087 139.495 69.6368 144.092 59.1161 148.555C48.5954 153.019 38.0437 157.381 27.3578 161.528C37.4795 156.173 47.6872 151.026 57.981 146.088C68.2571 141.104 78.6301 136.321 89.0054 131.556C99.3807 126.791 109.851 122.209 120.352 117.73C130.853 113.251 141.439 108.885 152.112 104.775Z" fill="#EBEBEB"/>
</g>
<path d="M323.004 70.1474C322.302 69.5265 313.037 64.6724 312.352 64.316L313.772 63.8845C313.772 63.8845 322.385 69.4802 323.004 70.1474Z" fill="#FFC727"/>
<path opacity="0.5" d="M323.004 70.1474C322.302 69.5265 313.037 64.6724 312.352 64.316L313.772 63.8845C313.772 63.8845 322.385 69.4802 323.004 70.1474Z" fill="white"/>
<path d="M323.046 70.1953C323.066 70.3527 322.435 70.5583 321.799 70.7289C321.206 70.915 320.584 70.9949 319.963 70.965C319.772 70.8651 313.239 68.5934 309.236 67.1878L309.096 67.2058L308.537 67.0109L306.81 66.4329L306.177 66.2121L312.351 64.3159L318.647 67.6493L318.917 67.8102L319.679 68.21C320.823 68.7936 321.933 69.4404 323.004 70.1473V70.1473L323.046 70.1953Z" fill="#FFC727"/>
<g opacity="0.1">
<path opacity="0.1" d="M323.046 70.1953C323.067 70.3527 322.435 70.5584 321.799 70.729C321.206 70.9151 320.584 70.995 319.963 70.9651C319.772 70.8651 313.071 68.5263 309.087 67.1359C309.737 67.3546 318.37 70.192 319.706 68.1356C320.849 68.7192 321.959 69.366 323.031 70.0729V70.0729L323.046 70.1953Z" fill="black"/>
</g>
<path d="M407.105 66.4303C407.215 67.2873 402.596 68.1477 401.979 68.0493C401.362 67.9508 348.056 54.5167 348.056 54.5167L365.717 44.7433L366.309 45.0584L366.556 45.1866C370.36 47.1156 381.473 52.9235 391.231 58.0164L391.822 58.3315L392.585 58.7313C399.334 62.2731 405.207 65.3585 407.105 66.4303Z" fill="#FFC727"/>
<path d="M407.105 66.4303C402.141 63.6369 369.929 46.94 365.7 44.7455L367.942 43.515C367.942 43.515 405.771 65.3216 406.951 66.2011C407.03 66.2548 407.085 66.3369 407.105 66.4303V66.4303Z" fill="#FFC727"/>
<path opacity="0.5" d="M407.105 66.4303C402.141 63.6369 369.929 46.94 365.7 44.7455L367.942 43.515C367.942 43.515 405.771 65.3216 406.951 66.2011C407.03 66.2548 407.085 66.3369 407.105 66.4303V66.4303Z" fill="white"/>
<g opacity="0.5">
<path opacity="0.1" d="M407.105 66.4303C407.215 67.2873 402.596 68.1477 401.979 68.0493C401.362 67.9508 348.056 54.5167 348.056 54.5167L365.717 44.7433C365.717 44.7433 361.792 50.5818 373.769 57.3097C381.93 61.8789 390.02 62.0125 392.585 58.7313C399.334 62.2731 405.207 65.3585 407.105 66.4303Z" fill="black"/>
</g>
<path d="M363.252 59.1773C361.89 60.0636 360.403 60.8059 360.097 59.3874C360.02 58.7927 360.357 58.0916 362.524 56.6929C363.032 56.3609 364.287 55.6128 364.843 56.7504C365.398 57.8881 363.765 58.8803 363.252 59.1773Z" fill="#FFC727"/>
<path opacity="0.1" d="M363.252 59.1773C361.89 60.0636 360.403 60.8059 360.097 59.3874C360.02 58.7927 360.357 58.0916 362.524 56.6929C363.032 56.3609 364.287 55.6128 364.843 56.7504C365.398 57.8881 363.765 58.8803 363.252 59.1773Z" fill="black"/>
<path d="M375.611 62.5135C374.267 63.3975 372.78 64.1399 372.473 62.7214C372.397 62.1267 372.733 61.4256 374.9 60.0268C375.409 59.6948 376.664 58.9467 377.202 60.0866C377.739 61.2265 376.12 62.1815 375.611 62.5135Z" fill="#FFC727"/>
<path opacity="0.1" d="M375.611 62.5135C374.267 63.3975 372.78 64.1399 372.473 62.7214C372.397 62.1267 372.733 61.4256 374.9 60.0268C375.409 59.6948 376.664 58.9467 377.202 60.0866C377.739 61.2265 376.12 62.1815 375.611 62.5135Z" fill="black"/>
<path d="M387.983 65.8125C386.639 66.6965 385.135 67.4411 384.843 66.0028C384.769 65.4256 385.105 64.7245 387.273 63.3258C387.781 62.9937 389.034 62.2282 389.574 63.3856C390.114 64.5429 388.492 65.4804 387.983 65.8125Z" fill="#FFC727"/>
<path opacity="0.1" d="M387.983 65.8125C386.639 66.6965 385.135 67.4411 384.843 66.0028C384.769 65.4256 385.105 64.7245 387.273 63.3258C387.781 62.9937 389.034 62.2282 389.574 63.3856C390.114 64.5429 388.492 65.4804 387.983 65.8125Z" fill="black"/>
<path d="M382.529 53.6766C381.434 56.3599 378.344 57.7706 376.409 58.766C371.281 61.6121 367.521 63.3401 364.948 58.6748C364.649 58.1455 364.431 57.574 364.303 56.9797C363.511 53.3122 367.086 50.968 368.915 49.7017C371.099 48.1586 372.657 47.1404 373.831 46.456C374.955 45.7093 376.223 45.2071 377.553 44.9819C378.638 44.8425 381.081 44.7596 382.538 49.1773C383.067 50.6309 383.064 52.225 382.529 53.6766V53.6766Z" fill="#FFC727"/>
<path d="M382.128 50.1368C382.483 52.9003 381.022 55.3639 378.923 55.6338C376.824 55.9036 374.787 53.8896 374.432 51.1261C374.076 48.3626 375.54 45.9164 377.639 45.6466C379.738 45.3768 381.775 47.3907 382.128 50.1368Z" fill="#263238"/>
<path d="M381.69 50.193C381.602 50.8437 381.333 51.4567 380.915 51.9631C380.497 52.4695 379.946 52.8491 379.324 53.0592C378.702 53.2692 378.033 53.3014 377.394 53.1521C376.754 53.0028 376.169 52.6779 375.704 52.214C375.239 51.7501 374.913 51.1657 374.763 50.5265C374.612 49.8873 374.643 49.2188 374.852 48.5962C375.06 47.9736 375.439 47.4216 375.944 47.0025C376.45 46.5833 377.063 46.3136 377.713 46.2238C378.763 46.235 379.767 46.6566 380.51 47.3983C381.253 48.14 381.677 49.1431 381.69 50.193V50.193Z" fill="#455A64"/>
<path d="M301.292 59.1948L300.441 59.6243L298.524 60.6174L291.143 58.5259C284.036 56.4881 275.624 54.1202 274.037 53.8086L274.229 53.7839L274.404 53.7614L274.631 53.7321L274.771 53.7142L275.319 53.8216L275.883 53.9268L277.488 54.2362L278.017 54.3459L278.527 54.4403L278.807 54.4044L279.665 54.5785L280.25 54.699L287.78 56.4335L288.491 56.5731L291.265 57.1234L296.065 58.0887L296.741 58.2329L298.821 58.6413L299.348 58.7335L299.575 58.7042L299.698 58.6885L301.292 59.1948Z" fill="#FFC727"/>
<path opacity="0.5" d="M301.292 59.1948L300.441 59.6243L298.524 60.6174L291.143 58.5259C284.036 56.4881 275.624 54.1202 274.037 53.8086L274.229 53.7839L274.404 53.7614L274.631 53.7321L274.771 53.7142L275.319 53.8216L275.883 53.9268L277.488 54.2362L278.017 54.3459L278.527 54.4403L278.807 54.4044L279.665 54.5785L280.25 54.699L287.78 56.4335L288.491 56.5731L291.265 57.1234L296.065 58.0887L296.741 58.2329L298.821 58.6413L299.348 58.7335L299.575 58.7042L299.698 58.6885L301.292 59.1948Z" fill="white"/>
<path d="M298.523 60.6175L293.423 63.2645C293.423 63.2645 280.69 59.2296 273.019 56.6776L272.914 56.6911L270.719 55.9419C269.616 55.6338 268.549 55.2108 267.535 54.6801C269.596 53.9458 271.791 53.6636 273.971 53.8526V53.8526L274.094 53.8369C275.626 54.1378 283.541 56.374 290.479 58.3445L290.619 58.3266L291.191 58.4842L298.523 60.6175Z" fill="#FFC727"/>
<g opacity="0.1">
<path opacity="0.1" d="M298.523 60.6175L293.423 63.2645C293.423 63.2645 280.69 59.2297 273.019 56.6776C274.271 57.0145 287.117 60.8214 290.029 59.6826C290.3 59.596 290.546 59.4452 290.746 59.243C290.946 59.0409 291.094 58.7933 291.178 58.5215L298.523 60.6175Z" fill="black"/>
</g>
<path d="M311.426 51.1713L299.185 59.1278C299.185 59.1278 297.869 47.9181 296.939 39.8588C296.903 39.579 296.87 39.3166 296.834 39.0368L296.751 38.3896C296.395 35.6261 296.11 33.4048 295.982 32.4078C295.566 29.172 295.865 28.4579 296.79 28.8725C299.099 30.1537 301.276 31.6606 303.288 33.3709C304.39 34.4739 307.416 41.5524 309.413 46.4341C309.425 46.4736 309.431 46.5151 309.428 46.5565C309.554 46.8426 309.66 47.1135 309.766 47.3843C310.765 49.6207 311.426 51.1713 311.426 51.1713Z" fill="#FFC727"/>
<g opacity="0.1">
<path opacity="0.1" d="M311.426 51.1713L299.185 59.1278C299.185 59.1278 297.869 47.918 296.939 39.8588C299.414 43.8967 303.963 49.2681 309.915 47.4362C310.765 49.6206 311.426 51.1713 311.426 51.1713Z" fill="black"/>
</g>
<path d="M290.882 67.1471C289.103 63.962 294.429 60.1659 300.528 56.4305C306.626 52.6951 366.865 16.326 375.811 12.6157C384.757 8.90536 395.974 10.966 398.475 16.0318C402.222 23.6043 391.602 31.7258 352.408 54.2062C347.273 57.1421 323.71 66.0918 310.142 67.8716C295.561 69.7993 291.76 68.7233 290.882 67.1471Z" fill="#FFC727"/>
<path opacity="0.5" d="M290.882 67.1471C289.103 63.962 294.429 60.1659 300.528 56.4305C306.626 52.6951 366.865 16.326 375.811 12.6157C384.757 8.90536 395.974 10.966 398.475 16.0318C402.222 23.6043 391.602 31.7258 352.408 54.2062C347.273 57.1421 323.71 66.0918 310.142 67.8716C295.561 69.7993 291.76 68.7233 290.882 67.1471Z" fill="white"/>
<path opacity="0.1" d="M352.39 54.2085C347.256 57.1443 323.692 66.0941 310.124 67.8739C295.554 69.7468 291.76 68.7233 290.882 67.1471C290.003 65.5709 290.957 63.5815 293.015 61.7523C293.041 62.09 293.144 62.4174 293.316 62.7093C294.122 64.1348 297.557 65.1333 310.773 63.381C323.157 61.7891 339.652 49.4453 344.304 46.7671C379.84 26.3927 394.331 23.2142 390.92 16.3273C389.434 13.3358 384.576 11.5067 379.121 11.5324C387.318 9.46512 396.25 11.5884 398.457 16.0341C402.204 23.6066 391.55 31.7325 352.39 54.2085Z" fill="black"/>
<path d="M309.711 53.4543L311.081 52.638L311.358 54.7894L309.989 55.6232L309.711 53.4543Z" fill="#455A64"/>
<path d="M312.238 51.956L313.709 51.0912L313.986 53.2426L312.517 54.1248L312.238 51.956Z" fill="#455A64"/>
<path d="M314.847 50.3937L316.335 49.5267L316.612 51.6781L315.125 52.5626L314.847 50.3937Z" fill="#455A64"/>
<path d="M317.475 48.8469L318.961 47.9624L319.238 50.1138L317.751 50.9983L317.475 48.8469Z" fill="#455A64"/>
<path d="M320.101 47.2825L321.57 46.4003L321.849 48.5691L320.377 49.4339L320.101 47.2825Z" fill="#455A64"/>
<path d="M322.726 45.7182L324.198 44.8535L324.474 47.0048L323.005 47.8871L322.726 45.7182Z" fill="#455A64"/>
<path d="M325.337 44.1736L326.824 43.2891L327.1 45.4405L325.614 46.3249L325.337 44.1736Z" fill="#455A64"/>
<path d="M327.963 42.6092L329.432 41.727L329.711 43.8958L328.24 44.7606L327.963 42.6092Z" fill="#455A64"/>
<path d="M330.589 41.0448L332.058 40.1626L332.337 42.3314L330.868 43.2137L330.589 41.0448Z" fill="#455A64"/>
<path d="M333.2 39.5002L334.686 38.6157L334.963 40.767L333.476 41.6516L333.2 39.5002Z" fill="#455A64"/>
<path d="M335.825 37.9359L337.312 37.0514L337.588 39.2027L336.102 40.0872L335.825 37.9359Z" fill="#455A64"/>
<path d="M338.451 36.3715L339.92 35.4892L340.199 37.6581L338.73 38.5403L338.451 36.3715Z" fill="#455A64"/>
<path d="M341.077 34.8072L342.548 33.9424L342.825 36.0938L341.356 36.976L341.077 34.8072Z" fill="#455A64"/>
<path d="M343.688 33.2625L345.174 32.378L345.451 34.5293L343.964 35.4138L343.688 33.2625Z" fill="#455A64"/>
<path d="M346.314 31.6982L347.8 30.8138L348.079 32.9826L346.59 33.8496L346.314 31.6982Z" fill="#455A64"/>
<path d="M348.94 30.1339L350.409 29.2516L350.687 31.4204L349.218 32.3027L348.94 30.1339Z" fill="#455A64"/>
<path d="M351.55 28.5892L353.037 27.7047L353.313 29.856L351.827 30.7405L351.55 28.5892Z" fill="#455A64"/>
<path d="M354.176 27.0248L355.663 26.1404L355.939 28.2917L354.453 29.1762L354.176 27.0248Z" fill="#455A64"/>
<path d="M356.802 25.4604L358.289 24.5759L358.567 26.7447L357.081 27.6292L356.802 25.4604Z" fill="#455A64"/>
<path d="M359.428 23.896L360.899 23.0313L361.175 25.1826L359.707 26.0649L359.428 23.896Z" fill="#455A64"/>
<path d="M362.056 22.3493L363.525 21.467L363.802 23.6184L362.333 24.5006L362.056 22.3493Z" fill="#455A64"/>
<path d="M366.151 19.9026L366.43 22.0714L364.941 22.9384L364.664 20.7871L366.151 19.9026Z" fill="#455A64"/>
<path d="M368.779 18.3557L369.056 20.507L367.569 21.3915L367.29 19.2227L368.779 18.3557Z" fill="#455A64"/>
<path d="M371.387 16.7936L371.664 18.945L370.195 19.8272L369.918 17.6758L371.387 16.7936Z" fill="#455A64"/>
<path d="M374.013 15.2292L374.292 17.3981L372.803 18.2651L372.527 16.1137L374.013 15.2292Z" fill="#455A64"/>
<path d="M381.247 13.4104C382.023 12.6448 382.953 12.0526 383.975 11.6729L384.159 13.1071L381.247 13.4104Z" fill="#455A64"/>
<path d="M387.255 10.9133L387.509 12.8897C386.775 12.9842 386.044 12.9714 385.305 13.0309L385.08 11.2818C385.792 11.0894 386.52 10.966 387.255 10.9133V10.9133Z" fill="#455A64"/>
<path d="M394.594 12.8147C393.982 12.8934 393.407 12.8429 392.82 12.8472C392.234 12.8514 391.678 12.8162 391.13 12.8334C390.309 12.8144 389.511 12.8281 388.715 12.8593L388.461 10.8829C389.433 10.8843 390.401 11.0171 391.338 11.2775C391.923 11.4273 392.492 11.6341 393.036 11.8949C393.311 12.015 393.578 12.1529 393.836 12.3077C394.114 12.5386 394.357 12.6318 394.594 12.8147Z" fill="#455A64"/>
<path d="M346.918 36.8122L329.708 48.0211C329.708 48.0211 298.44 36.0389 275.987 27.3505C263.989 22.6701 254.824 19.0121 254.942 18.8192C255.231 18.302 260.87 17.6304 263.147 17.64C263.363 17.633 263.579 17.6469 263.792 17.6815C264.77 17.8224 299.439 25.8293 323.718 31.4381L346.918 36.8122Z" fill="#FFC727"/>
<g opacity="0.1">
<path opacity="0.1" d="M346.918 36.8122L329.708 48.0211C329.708 48.0211 298.44 36.0389 275.987 27.3506C277.737 27.9613 317.797 42.0848 322.345 38.602C324.062 37.2967 324.194 34.4527 323.661 31.4099L346.918 36.8122Z" fill="black"/>
</g>
<path d="M349.506 35.2348L344.371 38.5796C329.626 34.519 268.53 18.9926 263.455 17.6892C263.402 17.6885 263.349 17.6953 263.298 17.7094L263.175 17.7252C263.391 17.7182 263.607 17.732 263.821 17.7667C265.256 17.8666 349.506 35.2348 349.506 35.2348Z" fill="#FFC727"/>
<path opacity="0.5" d="M349.506 35.2348L344.371 38.5796C329.626 34.519 268.53 18.9926 263.455 17.6892C263.402 17.6885 263.349 17.6953 263.298 17.7094L263.175 17.7252C263.391 17.7182 263.607 17.732 263.821 17.7667C265.256 17.8666 349.506 35.2348 349.506 35.2348Z" fill="white"/>
<path d="M310.086 40.7468C308.45 41.8462 306.543 42.7846 306.17 40.9836C306.075 40.249 306.481 39.3967 309.205 37.6242C309.827 37.2064 311.396 36.2757 312.079 37.7169C312.762 39.1582 310.778 40.32 310.086 40.7468Z" fill="#FFC727"/>
<path opacity="0.1" d="M310.086 40.7468C308.45 41.8462 306.543 42.7846 306.17 40.9836C306.075 40.249 306.481 39.3967 309.205 37.6242C309.827 37.2064 311.396 36.2757 312.079 37.7169C312.762 39.1582 310.778 40.32 310.086 40.7468Z" fill="black"/>
<path d="M293.56 34.8704C291.923 35.9698 290 36.9105 289.628 35.127C289.531 34.3749 289.955 33.5203 292.661 31.7501C293.303 31.3475 294.87 30.3993 295.553 31.8406C296.236 33.2818 294.199 34.4504 293.56 34.8704Z" fill="#FFC727"/>
<path opacity="0.1" d="M293.56 34.8704C291.923 35.9698 290 36.9105 289.628 35.127C289.531 34.3749 289.955 33.5203 292.661 31.7501C293.303 31.3475 294.87 30.3993 295.553 31.8406C296.236 33.2818 294.199 34.4504 293.56 34.8704Z" fill="black"/>
<path d="M276.918 28.92C275.272 29.9494 273.606 30.8214 273.251 29.1603C273.161 28.4607 273.556 27.6631 276.083 26.0225C276.672 25.6267 278.144 24.762 278.778 26.1028C279.413 27.4436 277.507 28.5242 276.918 28.92Z" fill="#FFC727"/>
<path opacity="0.1" d="M276.918 28.92C275.272 29.9494 273.606 30.8214 273.251 29.1603C273.161 28.4607 273.556 27.6631 276.083 26.0225C276.672 25.6267 278.144 24.762 278.778 26.1028C279.413 27.4436 277.507 28.5242 276.918 28.92Z" fill="black"/>
<path d="M333.154 35.9678C332.061 38.6686 328.969 40.0618 327.035 41.0572C321.909 43.9208 318.146 45.6313 315.573 40.966C315.274 40.4367 315.056 39.8652 314.928 39.2709C314.137 35.6034 317.713 33.2767 319.54 31.9929C321.724 30.4498 323.282 29.4316 324.459 28.7647C325.582 28.0154 326.849 27.5074 328.179 27.2731C329.28 27.1315 331.708 27.0683 333.163 31.4685C333.692 32.9221 333.689 34.5162 333.154 35.9678V35.9678Z" fill="#FFC727"/>
<path d="M329.548 37.925C331.673 37.6518 333.109 35.1985 332.755 32.4455C332.401 29.6924 330.391 27.6821 328.266 27.9553C326.141 28.2285 324.705 30.6817 325.059 33.4348C325.413 36.1878 327.423 38.1982 329.548 37.925Z" fill="#263238"/>
<path d="M332.318 32.5016C332.229 33.1523 331.961 33.7654 331.543 34.2718C331.124 34.7782 330.573 35.1578 329.951 35.3678C329.329 35.5779 328.66 35.6101 328.021 35.4607C327.381 35.3114 326.796 34.9865 326.332 34.5226C325.867 34.0588 325.541 33.4743 325.39 32.8352C325.239 32.196 325.27 31.5274 325.479 30.9048C325.688 30.2822 326.066 29.7303 326.572 29.3111C327.077 28.892 327.69 28.6223 328.34 28.5324C329.389 28.5481 330.39 28.9711 331.133 29.7119C331.875 30.4527 332.3 31.4531 332.318 32.5016V32.5016Z" fill="#455A64"/>
<path d="M275.965 54.1475L275.4 54.0423L275.965 54.1475Z" fill="#FFC727"/>
</svg>
