<svg width="24" height="25" viewBox="0 0 24 25" fill="none" xmlns="http://www.w3.org/2000/svg">
<path d="M22.1719 2.33039C22.0185 2.17706 21.8241 2.07132 21.612 2.02591C21.3999 1.9805 21.1793 1.99736 20.9765 2.07445L2.22514 9.1718H2.22139C2.00519 9.25495 1.81992 9.40282 1.6909 9.59521C1.56188 9.7876 1.49539 10.0151 1.50052 10.2467C1.50565 10.4783 1.58214 10.7027 1.71955 10.8892C1.85696 11.0756 2.04859 11.2152 2.26827 11.2887L2.28749 11.2948L8.72342 14.043C8.84895 14.0812 8.98229 14.0857 9.11011 14.0561C9.23793 14.0266 9.35577 13.9641 9.45186 13.8748L19.7812 4.24992C19.812 4.21914 19.8486 4.19473 19.8888 4.17807C19.929 4.16142 19.9721 4.15284 20.0156 4.15284C20.0591 4.15284 20.1022 4.16142 20.1425 4.17807C20.1827 4.19473 20.2192 4.21914 20.25 4.24992C20.2808 4.2807 20.3052 4.31724 20.3218 4.35746C20.3385 4.39767 20.3471 4.44077 20.3471 4.4843C20.3471 4.52783 20.3385 4.57093 20.3218 4.61114C20.3052 4.65136 20.2808 4.68789 20.25 4.71867L10.6247 15.0434C10.5354 15.1395 10.4728 15.2573 10.4433 15.3851C10.4138 15.5129 10.4183 15.6463 10.4564 15.7718L13.2056 22.2115C13.2084 22.2209 13.2112 22.2293 13.2145 22.2382C13.3645 22.6727 13.7442 22.9793 14.2031 22.9999H14.25C14.4817 23.0012 14.7084 22.9328 14.9006 22.8036C15.0929 22.6744 15.2419 22.4903 15.3281 22.2752L22.4245 3.52899C22.5027 3.32615 22.5205 3.105 22.4756 2.89229C22.4308 2.67957 22.3253 2.48441 22.1719 2.33039Z" fill="#ECECEC"/>
</svg>
