<svg width="29" height="29" viewBox="0 0 29 29" fill="none" xmlns="http://www.w3.org/2000/svg">
<path d="M11.8804 21.3845C13.9891 21.3841 16.0371 20.6782 17.6982 19.3791L22.9208 24.6017L24.6007 22.9218L19.3781 17.6992C20.6778 16.038 21.3841 13.9895 21.3846 11.8802C21.3846 6.63983 17.1208 2.37598 11.8804 2.37598C6.63995 2.37598 2.3761 6.63983 2.3761 11.8802C2.3761 17.1207 6.63995 21.3845 11.8804 21.3845ZM11.8804 4.75204C15.8116 4.75204 19.0086 7.94904 19.0086 11.8802C19.0086 15.8115 15.8116 19.0085 11.8804 19.0085C7.94917 19.0085 4.75217 15.8115 4.75217 11.8802C4.75217 7.94904 7.94917 4.75204 11.8804 4.75204Z" fill="black" fill-opacity="0.3"/>
<path d="M13.558 10.2005C14.0082 10.6519 14.2565 11.2483 14.2565 11.8803H16.6326C16.6336 11.2559 16.5109 10.6375 16.2715 10.0608C16.0321 9.48416 15.6808 8.96065 15.2378 8.52057C13.4392 6.72426 10.3206 6.72426 8.52307 8.52057L10.2006 10.2028C11.1035 9.3023 12.6598 9.30467 13.558 10.2005Z" fill="black" fill-opacity="0.3"/>
</svg>
