<svg width="35" height="35" viewBox="0 0 35 35" fill="none" xmlns="http://www.w3.org/2000/svg">
<path d="M17.5 10.2084C17.7901 10.2084 18.0683 10.3236 18.2734 10.5287C18.4786 10.7338 18.5938 11.012 18.5938 11.3021V16.4063H23.698C23.988 16.4063 24.2662 16.5215 24.4714 16.7266C24.6765 16.9318 24.7917 17.21 24.7917 17.5C24.7917 17.7901 24.6765 18.0683 24.4714 18.2734C24.2662 18.4786 23.988 18.5938 23.698 18.5938H18.5938V23.698C18.5938 23.988 18.4786 24.2662 18.2734 24.4714C18.0683 24.6765 17.7901 24.7917 17.5 24.7917C17.21 24.7917 16.9318 24.6765 16.7266 24.4714C16.5215 24.2662 16.4063 23.988 16.4063 23.698V18.5938H11.3021C11.012 18.5938 10.7338 18.4786 10.5287 18.2734C10.3236 18.0683 10.2084 17.7901 10.2084 17.5C10.2084 17.21 10.3236 16.9318 10.5287 16.7266C10.7338 16.5215 11.012 16.4063 11.3021 16.4063H16.4063V11.3021C16.4063 11.012 16.5215 10.7338 16.7266 10.5287C16.9318 10.3236 17.21 10.2084 17.5 10.2084Z" fill="black"/>
<path d="M4.375 9.11458C4.375 7.85757 4.87435 6.65204 5.76319 5.76319C6.65204 4.87435 7.85757 4.375 9.11458 4.375H25.8854C27.1424 4.375 28.348 4.87435 29.2368 5.76319C30.1257 6.65204 30.625 7.85757 30.625 9.11458V25.8854C30.625 27.1424 30.1257 28.348 29.2368 29.2368C28.348 30.1257 27.1424 30.625 25.8854 30.625H9.11458C7.85757 30.625 6.65204 30.1257 5.76319 29.2368C4.87435 28.348 4.375 27.1424 4.375 25.8854V9.11458ZM9.11458 6.5625C8.43773 6.5625 7.7886 6.83138 7.30999 7.30999C6.83138 7.7886 6.5625 8.43773 6.5625 9.11458V25.8854C6.5625 27.2942 7.70583 28.4375 9.11458 28.4375H25.8854C26.5623 28.4375 27.2114 28.1686 27.69 27.69C28.1686 27.2114 28.4375 26.5623 28.4375 25.8854V9.11458C28.4375 8.43773 28.1686 7.7886 27.69 7.30999C27.2114 6.83138 26.5623 6.5625 25.8854 6.5625H9.11458Z" fill="black"/>
</svg>
