<svg width="331" height="119" viewBox="0 0 331 119" fill="none" xmlns="http://www.w3.org/2000/svg">
<g opacity="0.6">
<path opacity="0.6" d="M230.672 68.6761L-77.9347 177.493L196.045 56.8412L230.672 68.6761Z" fill="#EBEBEB"/>
<path opacity="0.6" d="M189.007 94.7633C172.68 101.218 156.182 107.179 139.642 112.951C131.366 115.792 123.073 118.636 114.78 121.481L89.832 129.755L64.791 137.721C56.4094 140.292 48.0566 142.948 39.644 145.416C22.8674 150.453 6.01583 155.322 -10.9907 159.678C5.33699 153.223 21.8173 147.264 38.3748 141.49C46.6392 138.561 54.9436 135.804 63.2367 132.96L88.178 124.634L113.176 116.744C121.54 114.175 129.892 111.519 138.305 109.051C155.152 104.005 172.003 99.1361 189.007 94.7633Z" fill="#EBEBEB"/>
<path opacity="0.6" d="M68.1122 104.775C58.0007 110.117 47.7922 115.258 37.4868 120.198C27.2107 125.181 16.8376 129.964 6.46234 134.729C-3.91295 139.495 -14.3632 144.092 -24.8839 148.555C-35.4046 153.019 -45.9563 157.381 -56.6422 161.528C-46.5205 156.173 -36.3128 151.026 -26.019 146.088C-15.7429 141.104 -5.36987 136.321 5.00542 131.556C15.3807 126.791 25.8507 122.209 36.3517 117.73C46.8527 113.251 57.4393 108.885 68.1122 104.775Z" fill="#EBEBEB"/>
</g>
<path d="M239.004 70.1474C238.302 69.5265 229.037 64.6724 228.352 64.316L229.772 63.8845C229.772 63.8845 238.385 69.4802 239.004 70.1474Z" fill="#FFC727"/>
<path opacity="0.5" d="M239.004 70.1474C238.302 69.5265 229.037 64.6724 228.352 64.316L229.772 63.8845C229.772 63.8845 238.385 69.4802 239.004 70.1474Z" fill="white"/>
<path d="M239.046 70.1953C239.066 70.3527 238.435 70.5583 237.799 70.7289C237.206 70.915 236.584 70.9949 235.963 70.965C235.772 70.8651 229.239 68.5934 225.236 67.1878L225.096 67.2058L224.537 67.0109L222.81 66.4329L222.177 66.2121L228.351 64.3159L234.647 67.6493L234.917 67.8102L235.679 68.21C236.823 68.7936 237.933 69.4404 239.004 70.1473L239.046 70.1953Z" fill="#FFC727"/>
<g opacity="0.1">
<path opacity="0.1" d="M239.046 70.1953C239.067 70.3527 238.435 70.5584 237.799 70.729C237.206 70.9151 236.584 70.995 235.963 70.9651C235.772 70.8651 229.071 68.5263 225.087 67.1359C225.737 67.3546 234.37 70.192 235.706 68.1356C236.849 68.7192 237.959 69.366 239.031 70.0729L239.046 70.1953Z" fill="black"/>
</g>
<path d="M323.105 66.4303C323.215 67.2873 318.596 68.1477 317.979 68.0493C317.362 67.9508 264.056 54.5167 264.056 54.5167L281.717 44.7433L282.309 45.0584L282.556 45.1866C286.36 47.1156 297.473 52.9235 307.231 58.0164L307.822 58.3315L308.585 58.7313C315.334 62.2731 321.207 65.3585 323.105 66.4303Z" fill="#FFC727"/>
<path d="M323.105 66.4303C318.141 63.6369 285.929 46.94 281.7 44.7455L283.942 43.515C283.942 43.515 321.771 65.3216 322.951 66.2011C323.03 66.2548 323.085 66.3369 323.105 66.4303Z" fill="#FFC727"/>
<path opacity="0.5" d="M323.105 66.4303C318.141 63.6369 285.929 46.94 281.7 44.7455L283.942 43.515C283.942 43.515 321.771 65.3216 322.951 66.2011C323.03 66.2548 323.085 66.3369 323.105 66.4303Z" fill="white"/>
<g opacity="0.5">
<path opacity="0.1" d="M323.105 66.4303C323.215 67.2873 318.596 68.1477 317.979 68.0493C317.362 67.9508 264.056 54.5167 264.056 54.5167L281.717 44.7433C281.717 44.7433 277.792 50.5818 289.769 57.3097C297.93 61.8789 306.02 62.0125 308.585 58.7313C315.334 62.2731 321.207 65.3585 323.105 66.4303Z" fill="black"/>
</g>
<path d="M279.252 59.1773C277.89 60.0636 276.403 60.8059 276.097 59.3874C276.02 58.7927 276.357 58.0916 278.524 56.6929C279.032 56.3609 280.287 55.6128 280.843 56.7504C281.398 57.8881 279.765 58.8803 279.252 59.1773Z" fill="#FFC727"/>
<path opacity="0.1" d="M279.252 59.1773C277.89 60.0636 276.403 60.8059 276.097 59.3874C276.02 58.7927 276.357 58.0916 278.524 56.6929C279.032 56.3609 280.287 55.6128 280.843 56.7504C281.398 57.8881 279.765 58.8803 279.252 59.1773Z" fill="black"/>
<path d="M291.611 62.5135C290.267 63.3975 288.78 64.1399 288.473 62.7214C288.397 62.1267 288.733 61.4256 290.9 60.0268C291.409 59.6948 292.664 58.9467 293.202 60.0866C293.739 61.2265 292.12 62.1815 291.611 62.5135Z" fill="#FFC727"/>
<path opacity="0.1" d="M291.611 62.5135C290.267 63.3975 288.78 64.1399 288.473 62.7214C288.397 62.1267 288.733 61.4256 290.9 60.0268C291.409 59.6948 292.664 58.9467 293.202 60.0866C293.739 61.2265 292.12 62.1815 291.611 62.5135Z" fill="black"/>
<path d="M303.983 65.8125C302.639 66.6965 301.135 67.4411 300.843 66.0028C300.769 65.4256 301.105 64.7245 303.273 63.3258C303.781 62.9937 305.034 62.2282 305.574 63.3856C306.114 64.5429 304.492 65.4804 303.983 65.8125Z" fill="#FFC727"/>
<path opacity="0.1" d="M303.983 65.8125C302.639 66.6965 301.135 67.4411 300.843 66.0028C300.769 65.4256 301.105 64.7245 303.273 63.3258C303.781 62.9937 305.034 62.2282 305.574 63.3856C306.114 64.5429 304.492 65.4804 303.983 65.8125Z" fill="black"/>
<path d="M298.529 53.6766C297.434 56.3599 294.344 57.7706 292.409 58.766C287.281 61.6121 283.521 63.3401 280.948 58.6748C280.649 58.1455 280.431 57.574 280.303 56.9797C279.511 53.3122 283.086 50.968 284.915 49.7017C287.099 48.1586 288.657 47.1404 289.831 46.456C290.955 45.7093 292.223 45.2071 293.553 44.9819C294.638 44.8425 297.081 44.7596 298.538 49.1773C299.067 50.6309 299.064 52.225 298.529 53.6766Z" fill="#FFC727"/>
<path d="M298.128 50.1368C298.483 52.9003 297.022 55.3639 294.923 55.6338C292.824 55.9036 290.787 53.8896 290.432 51.1261C290.076 48.3626 291.54 45.9164 293.639 45.6466C295.738 45.3768 297.775 47.3907 298.128 50.1368Z" fill="#263238"/>
<path d="M297.69 50.193C297.602 50.8437 297.333 51.4567 296.915 51.9631C296.497 52.4695 295.946 52.8491 295.324 53.0592C294.702 53.2692 294.033 53.3014 293.394 53.1521C292.754 53.0028 292.169 52.6779 291.704 52.214C291.239 51.7501 290.913 51.1657 290.763 50.5265C290.612 49.8873 290.643 49.2188 290.852 48.5962C291.06 47.9736 291.439 47.4216 291.944 47.0025C292.45 46.5833 293.063 46.3136 293.713 46.2238C294.763 46.235 295.767 46.6566 296.51 47.3983C297.253 48.14 297.677 49.1431 297.69 50.193Z" fill="#455A64"/>
<path d="M217.292 59.1948L216.441 59.6243L214.524 60.6174L207.143 58.5259C200.036 56.4881 191.624 54.1202 190.037 53.8086L190.229 53.7839L190.404 53.7614L190.631 53.7321L190.771 53.7142L191.319 53.8216L191.883 53.9268L193.488 54.2362L194.017 54.3459L194.527 54.4403L194.807 54.4044L195.665 54.5785L196.25 54.699L203.78 56.4335L204.491 56.5731L207.265 57.1234L212.065 58.0887L212.741 58.2329L214.821 58.6413L215.348 58.7335L215.575 58.7042L215.698 58.6885L217.292 59.1948Z" fill="#FFC727"/>
<path opacity="0.5" d="M217.292 59.1948L216.441 59.6243L214.524 60.6174L207.143 58.5259C200.036 56.4881 191.624 54.1202 190.037 53.8086L190.229 53.7839L190.404 53.7614L190.631 53.7321L190.771 53.7142L191.319 53.8216L191.883 53.9268L193.488 54.2362L194.017 54.3459L194.527 54.4403L194.807 54.4044L195.665 54.5785L196.25 54.699L203.78 56.4335L204.491 56.5731L207.265 57.1234L212.065 58.0887L212.741 58.2329L214.821 58.6413L215.348 58.7335L215.575 58.7042L215.698 58.6885L217.292 59.1948Z" fill="white"/>
<path d="M214.523 60.6175L209.423 63.2645C209.423 63.2645 196.69 59.2296 189.019 56.6776L188.914 56.6911L186.719 55.9419C185.616 55.6338 184.549 55.2108 183.535 54.6801C185.596 53.9458 187.791 53.6636 189.971 53.8526L190.094 53.8369C191.626 54.1378 199.541 56.374 206.479 58.3445L206.619 58.3266L207.191 58.4842L214.523 60.6175Z" fill="#FFC727"/>
<g opacity="0.1">
<path opacity="0.1" d="M214.523 60.6175L209.423 63.2645C209.423 63.2645 196.69 59.2297 189.019 56.6776C190.271 57.0145 203.117 60.8214 206.029 59.6826C206.3 59.596 206.546 59.4452 206.746 59.243C206.946 59.0409 207.094 58.7933 207.178 58.5215L214.523 60.6175Z" fill="black"/>
</g>
<path d="M227.426 51.1713L215.185 59.1278C215.185 59.1278 213.869 47.9181 212.939 39.8588C212.903 39.579 212.87 39.3166 212.834 39.0368L212.751 38.3896C212.395 35.6261 212.11 33.4048 211.982 32.4078C211.566 29.172 211.865 28.4579 212.79 28.8725C215.099 30.1537 217.276 31.6606 219.288 33.3709C220.39 34.4739 223.416 41.5524 225.413 46.4341C225.425 46.4736 225.431 46.5151 225.428 46.5565C225.554 46.8426 225.66 47.1135 225.766 47.3843C226.765 49.6207 227.426 51.1713 227.426 51.1713Z" fill="#FFC727"/>
<g opacity="0.1">
<path opacity="0.1" d="M227.426 51.1713L215.185 59.1278C215.185 59.1278 213.869 47.918 212.939 39.8588C215.414 43.8967 219.963 49.2681 225.915 47.4362C226.765 49.6206 227.426 51.1713 227.426 51.1713Z" fill="black"/>
</g>
<path d="M206.882 67.1471C205.103 63.962 210.429 60.1659 216.528 56.4305C222.626 52.6951 282.865 16.326 291.811 12.6157C300.757 8.90536 311.974 10.966 314.475 16.0318C318.222 23.6043 307.602 31.7258 268.408 54.2062C263.273 57.1421 239.71 66.0918 226.142 67.8716C211.561 69.7993 207.76 68.7233 206.882 67.1471Z" fill="#FFC727"/>
<path opacity="0.5" d="M206.882 67.1471C205.103 63.962 210.429 60.1659 216.528 56.4305C222.626 52.6951 282.865 16.326 291.811 12.6157C300.757 8.90536 311.974 10.966 314.475 16.0318C318.222 23.6043 307.602 31.7258 268.408 54.2062C263.273 57.1421 239.71 66.0918 226.142 67.8716C211.561 69.7993 207.76 68.7233 206.882 67.1471Z" fill="white"/>
<path opacity="0.1" d="M268.39 54.2085C263.256 57.1443 239.692 66.0941 226.124 67.8739C211.554 69.7468 207.76 68.7233 206.882 67.1471C206.003 65.5709 206.957 63.5815 209.015 61.7523C209.041 62.09 209.144 62.4174 209.316 62.7093C210.122 64.1348 213.557 65.1333 226.773 63.381C239.157 61.7891 255.652 49.4453 260.304 46.7671C295.84 26.3927 310.331 23.2142 306.92 16.3273C305.434 13.3358 300.576 11.5067 295.121 11.5324C303.318 9.46512 312.25 11.5884 314.457 16.0341C318.204 23.6066 307.55 31.7325 268.39 54.2085Z" fill="black"/>
<path d="M225.711 53.4543L227.081 52.638L227.358 54.7894L225.989 55.6232L225.711 53.4543Z" fill="#455A64"/>
<path d="M228.238 51.956L229.709 51.0912L229.986 53.2426L228.517 54.1248L228.238 51.956Z" fill="#455A64"/>
<path d="M230.847 50.3937L232.335 49.5267L232.612 51.6781L231.125 52.5626L230.847 50.3937Z" fill="#455A64"/>
<path d="M233.475 48.8469L234.961 47.9624L235.238 50.1138L233.751 50.9983L233.475 48.8469Z" fill="#455A64"/>
<path d="M236.101 47.2825L237.57 46.4003L237.849 48.5691L236.377 49.4339L236.101 47.2825Z" fill="#455A64"/>
<path d="M238.726 45.7182L240.198 44.8535L240.474 47.0048L239.005 47.8871L238.726 45.7182Z" fill="#455A64"/>
<path d="M241.337 44.1736L242.824 43.2891L243.1 45.4405L241.614 46.3249L241.337 44.1736Z" fill="#455A64"/>
<path d="M243.963 42.6092L245.432 41.727L245.711 43.8958L244.24 44.7606L243.963 42.6092Z" fill="#455A64"/>
<path d="M246.589 41.0448L248.058 40.1626L248.337 42.3314L246.868 43.2137L246.589 41.0448Z" fill="#455A64"/>
<path d="M249.2 39.5002L250.686 38.6157L250.963 40.767L249.476 41.6516L249.2 39.5002Z" fill="#455A64"/>
<path d="M251.825 37.9359L253.312 37.0514L253.588 39.2027L252.102 40.0872L251.825 37.9359Z" fill="#455A64"/>
<path d="M254.451 36.3715L255.92 35.4892L256.199 37.6581L254.73 38.5403L254.451 36.3715Z" fill="#455A64"/>
<path d="M257.077 34.8072L258.548 33.9424L258.825 36.0938L257.356 36.976L257.077 34.8072Z" fill="#455A64"/>
<path d="M259.688 33.2625L261.174 32.378L261.451 34.5293L259.964 35.4138L259.688 33.2625Z" fill="#455A64"/>
<path d="M262.314 31.6982L263.8 30.8138L264.079 32.9826L262.59 33.8496L262.314 31.6982Z" fill="#455A64"/>
<path d="M264.94 30.1339L266.409 29.2516L266.687 31.4204L265.218 32.3027L264.94 30.1339Z" fill="#455A64"/>
<path d="M267.55 28.5892L269.037 27.7047L269.313 29.856L267.827 30.7405L267.55 28.5892Z" fill="#455A64"/>
<path d="M270.176 27.0248L271.663 26.1404L271.939 28.2917L270.453 29.1762L270.176 27.0248Z" fill="#455A64"/>
<path d="M272.802 25.4604L274.289 24.5759L274.567 26.7447L273.081 27.6292L272.802 25.4604Z" fill="#455A64"/>
<path d="M275.428 23.896L276.899 23.0313L277.175 25.1826L275.707 26.0649L275.428 23.896Z" fill="#455A64"/>
<path d="M278.056 22.3493L279.525 21.467L279.802 23.6184L278.333 24.5006L278.056 22.3493Z" fill="#455A64"/>
<path d="M282.151 19.9026L282.43 22.0714L280.941 22.9384L280.664 20.7871L282.151 19.9026Z" fill="#455A64"/>
<path d="M284.779 18.3557L285.056 20.507L283.569 21.3915L283.29 19.2227L284.779 18.3557Z" fill="#455A64"/>
<path d="M287.387 16.7936L287.664 18.945L286.195 19.8272L285.918 17.6758L287.387 16.7936Z" fill="#455A64"/>
<path d="M290.013 15.2292L290.292 17.3981L288.803 18.2651L288.527 16.1137L290.013 15.2292Z" fill="#455A64"/>
<path d="M297.247 13.4104C298.023 12.6448 298.953 12.0526 299.975 11.6729L300.159 13.1071L297.247 13.4104Z" fill="#455A64"/>
<path d="M303.255 10.9133L303.509 12.8897C302.775 12.9842 302.044 12.9714 301.305 13.0309L301.08 11.2818C301.792 11.0894 302.52 10.966 303.255 10.9133Z" fill="#455A64"/>
<path d="M310.594 12.8147C309.982 12.8934 309.407 12.8429 308.82 12.8472C308.234 12.8514 307.678 12.8162 307.13 12.8334C306.309 12.8144 305.511 12.8281 304.715 12.8593L304.461 10.8829C305.433 10.8843 306.401 11.0171 307.338 11.2775C307.923 11.4273 308.492 11.6341 309.036 11.8949C309.311 12.015 309.578 12.1529 309.836 12.3077C310.114 12.5386 310.357 12.6318 310.594 12.8147Z" fill="#455A64"/>
<path d="M262.918 36.8122L245.708 48.0211C245.708 48.0211 214.44 36.0389 191.987 27.3505C179.989 22.6701 170.824 19.0121 170.942 18.8192C171.231 18.302 176.87 17.6304 179.147 17.64C179.363 17.633 179.579 17.6469 179.792 17.6815C180.77 17.8224 215.439 25.8293 239.718 31.4381L262.918 36.8122Z" fill="#FFC727"/>
<g opacity="0.1">
<path opacity="0.1" d="M262.918 36.8122L245.708 48.0211C245.708 48.0211 214.44 36.0389 191.987 27.3506C193.737 27.9613 233.797 42.0848 238.345 38.602C240.062 37.2967 240.194 34.4527 239.661 31.4099L262.918 36.8122Z" fill="black"/>
</g>
<path d="M265.506 35.2348L260.371 38.5796C245.626 34.519 184.53 18.9926 179.455 17.6892C179.402 17.6885 179.349 17.6953 179.298 17.7094L179.175 17.7252C179.391 17.7182 179.607 17.732 179.821 17.7667C181.256 17.8666 265.506 35.2348 265.506 35.2348Z" fill="#FFC727"/>
<path opacity="0.5" d="M265.506 35.2348L260.371 38.5796C245.626 34.519 184.53 18.9926 179.455 17.6892C179.402 17.6885 179.349 17.6953 179.298 17.7094L179.175 17.7252C179.391 17.7182 179.607 17.732 179.821 17.7667C181.256 17.8666 265.506 35.2348 265.506 35.2348Z" fill="white"/>
<path d="M226.086 40.7468C224.45 41.8462 222.543 42.7846 222.17 40.9836C222.075 40.249 222.481 39.3967 225.205 37.6242C225.827 37.2064 227.396 36.2757 228.079 37.7169C228.762 39.1582 226.778 40.32 226.086 40.7468Z" fill="#FFC727"/>
<path opacity="0.1" d="M226.086 40.7468C224.45 41.8462 222.543 42.7846 222.17 40.9836C222.075 40.249 222.481 39.3967 225.205 37.6242C225.827 37.2064 227.396 36.2757 228.079 37.7169C228.762 39.1582 226.778 40.32 226.086 40.7468Z" fill="black"/>
<path d="M209.56 34.8704C207.923 35.9698 206 36.9105 205.628 35.127C205.531 34.3749 205.955 33.5203 208.661 31.7501C209.303 31.3475 210.87 30.3993 211.553 31.8406C212.236 33.2818 210.199 34.4504 209.56 34.8704Z" fill="#FFC727"/>
<path opacity="0.1" d="M209.56 34.8704C207.923 35.9698 206 36.9105 205.628 35.127C205.531 34.3749 205.955 33.5203 208.661 31.7501C209.303 31.3475 210.87 30.3993 211.553 31.8406C212.236 33.2818 210.199 34.4504 209.56 34.8704Z" fill="black"/>
<path d="M192.918 28.92C191.272 29.9494 189.606 30.8214 189.251 29.1603C189.161 28.4607 189.556 27.6631 192.083 26.0225C192.672 25.6267 194.144 24.762 194.778 26.1028C195.413 27.4436 193.507 28.5242 192.918 28.92Z" fill="#FFC727"/>
<path opacity="0.1" d="M192.918 28.92C191.272 29.9494 189.606 30.8214 189.251 29.1603C189.161 28.4607 189.556 27.6631 192.083 26.0225C192.672 25.6267 194.144 24.762 194.778 26.1028C195.413 27.4436 193.507 28.5242 192.918 28.92Z" fill="black"/>
<path d="M249.154 35.9678C248.061 38.6686 244.969 40.0618 243.035 41.0572C237.909 43.9208 234.146 45.6313 231.573 40.966C231.274 40.4367 231.056 39.8652 230.928 39.2709C230.137 35.6034 233.713 33.2767 235.54 31.9929C237.724 30.4498 239.282 29.4316 240.459 28.7647C241.582 28.0154 242.849 27.5074 244.179 27.2731C245.28 27.1315 247.708 27.0683 249.163 31.4685C249.692 32.9221 249.689 34.5162 249.154 35.9678Z" fill="#FFC727"/>
<path d="M245.548 37.925C247.673 37.6518 249.109 35.1985 248.755 32.4455C248.401 29.6924 246.391 27.6821 244.266 27.9553C242.141 28.2285 240.705 30.6817 241.059 33.4348C241.413 36.1878 243.423 38.1982 245.548 37.925Z" fill="#263238"/>
<path d="M248.318 32.5016C248.229 33.1523 247.961 33.7654 247.543 34.2718C247.124 34.7782 246.573 35.1578 245.951 35.3678C245.329 35.5779 244.66 35.6101 244.021 35.4607C243.381 35.3114 242.796 34.9865 242.332 34.5226C241.867 34.0588 241.541 33.4743 241.39 32.8352C241.239 32.196 241.27 31.5274 241.479 30.9048C241.688 30.2822 242.066 29.7303 242.572 29.3111C243.077 28.892 243.69 28.6223 244.34 28.5324C245.389 28.5481 246.39 28.9711 247.133 29.7119C247.875 30.4527 248.3 31.4531 248.318 32.5016Z" fill="#455A64"/>
<path d="M191.965 54.1475L191.4 54.0423L191.965 54.1475Z" fill="#FFC727"/>
</svg>
